<?xml version="1.0" standalone="no"?>
<!DOCTYPE svg PUBLIC "-//W3C//DTD SVG 20010904//EN"
 "http://www.w3.org/TR/2001/REC-SVG-20010904/DTD/svg10.dtd">
<svg version="1.0" xmlns="http://www.w3.org/2000/svg"
 width="500.000000pt" height="500.000000pt" viewBox="0 0 500.000000 500.000000"
 preserveAspectRatio="xMidYMid meet">

<g transform="translate(0.000000,500.000000) scale(0.100000,-0.100000)"
fill="#000000" stroke="none">
<path d="M1360 2905 l0 -505 425 0 425 0 0 -165 0 -165 50 0 50 0 0 165 0 165
70 0 c40 0 70 4 70 10 0 6 -30 10 -70 10 l-70 0 0 495 0 495 -50 0 -50 0 0
-495 0 -495 -375 0 -375 0 0 495 0 495 -50 0 -50 0 0 -505z"/>
<path d="M2729 3408 c-4 -9 -64 -509 -62 -512 2 -1 21 15 44 36 85 81 204 121
359 121 206 -1 368 -69 451 -189 51 -74 71 -146 71 -259 1 -165 -46 -295 -141
-391 -196 -200 -597 -133 -722 121 -39 79 -49 171 -26 228 l16 37 -29 0 c-37
0 -86 -41 -100 -86 -18 -53 -8 -151 20 -207 48 -96 169 -180 307 -214 106 -25
290 -23 378 4 190 60 344 218 384 393 6 25 11 82 11 127 0 229 -143 404 -377
459 -106 25 -314 15 -416 -19 -78 -27 -143 -62 -184 -100 l-23 -20 0 29 c0 16
9 99 20 184 11 85 20 158 20 163 0 4 191 7 425 7 l425 0 0 45 0 45 -425 0
c-234 0 -425 -1 -426 -2z"/>
<path d="M1630 1940 c0 -5 5 -10 10 -10 6 0 10 5 10 10 0 6 -4 10 -10 10 -5 0
-10 -4 -10 -10z"/>
<path d="M1890 1940 c0 -5 5 -10 10 -10 6 0 10 5 10 10 0 6 -4 10 -10 10 -5 0
-10 -4 -10 -10z"/>
<path d="M3250 1940 c0 -5 5 -10 10 -10 6 0 10 5 10 10 0 6 -4 10 -10 10 -5 0
-10 -4 -10 -10z"/>
<path d="M3290 1940 c0 -5 5 -10 10 -10 6 0 10 5 10 10 0 6 -4 10 -10 10 -5 0
-10 -4 -10 -10z"/>
<path d="M1410 1835 l0 -75 41 0 c41 0 78 14 91 34 15 22 8 76 -12 96 -15 15
-33 20 -70 20 l-50 0 0 -75z m110 40 c7 -8 13 -26 13 -40 0 -38 -21 -55 -64
-55 l-39 0 0 55 0 55 39 0 c22 0 44 -6 51 -15z"/>
<path d="M1630 1835 c0 -43 4 -75 10 -75 6 0 10 32 10 75 0 43 -4 75 -10 75
-6 0 -10 -32 -10 -75z"/>
<path d="M1730 1900 c0 -5 11 -10 26 -10 24 0 25 -2 22 -52 -3 -51 -4 -53 -31
-53 -32 1 -31 -18 2 -23 38 -6 51 15 51 84 l0 64 -35 0 c-19 0 -35 -4 -35 -10z"/>
<path d="M1890 1835 c0 -43 4 -75 10 -75 6 0 10 32 10 75 0 43 -4 75 -10 75
-6 0 -10 -32 -10 -75z"/>
<path d="M1970 1900 c0 -5 11 -10 25 -10 24 0 25 -2 25 -65 0 -37 4 -65 10
-65 6 0 10 28 10 65 0 63 1 65 25 65 14 0 25 5 25 10 0 6 -27 10 -60 10 -33 0
-60 -4 -60 -10z"/>
<path d="M2175 1848 c-39 -89 -38 -88 -27 -88 6 0 14 9 17 20 5 16 15 20 50
20 35 0 45 -4 50 -20 3 -11 11 -20 17 -20 5 0 8 4 6 8 -39 95 -63 142 -73 142
-7 0 -25 -28 -40 -62z m65 -20 c0 -12 -8 -18 -23 -18 -34 0 -38 8 -19 46 16
35 16 35 29 12 7 -13 12 -31 13 -40z"/>
<path d="M2360 1835 l0 -75 50 0 c28 0 50 5 50 10 0 6 -18 10 -40 10 l-40 0 0
65 c0 37 -4 65 -10 65 -6 0 -10 -32 -10 -75z"/>
<path d="M2632 1887 c-29 -31 -28 -72 3 -102 13 -14 28 -25 33 -25 16 0 23
-33 10 -42 -10 -7 -9 -9 2 -5 8 2 15 13 14 25 0 14 7 23 23 27 38 9 26 24 -15
18 -61 -8 -94 43 -59 92 11 14 22 17 55 12 41 -5 57 5 26 17 -33 13 -71 5 -92
-17z"/>
<path d="M2833 1895 c-29 -20 -37 -59 -19 -94 25 -46 75 -55 120 -20 54 42 21
129 -49 129 -17 0 -40 -7 -52 -15z m95 -18 c17 -13 15 -62 -4 -81 -43 -43
-120 5 -95 60 18 39 62 49 99 21z"/>
<path d="M3026 1901 c5 -5 26 -11 48 -13 l39 -3 -47 -57 c-25 -31 -46 -59 -46
-62 0 -3 29 -6 65 -6 37 0 65 4 65 10 0 6 -23 10 -51 10 l-51 0 46 54 c25 30
46 59 46 65 0 7 -24 11 -62 11 -38 0 -58 -4 -52 -9z"/>
<path d="M3220 1852 c0 -66 18 -92 63 -92 42 0 57 24 57 91 0 79 -18 76 -22
-3 l-3 -63 -35 0 -35 0 -3 63 c-4 79 -22 82 -22 4z"/>
<path d="M3430 1835 c0 -43 4 -75 10 -75 6 0 10 24 10 53 l1 52 25 -42 c14
-24 29 -43 33 -43 3 0 17 19 31 43 l25 42 3 -52 c5 -81 22 -63 22 22 0 41 -4
75 -9 75 -6 0 -22 -22 -38 -50 -15 -27 -30 -50 -33 -50 -3 0 -19 23 -35 50
-16 28 -33 50 -37 50 -4 0 -8 -34 -8 -75z"/>
</g>
</svg>
